<svg width="20" height="18" viewBox="0 0 20 18" fill="none" xmlns="http://www.w3.org/2000/svg">
<path d="M15.5194 9.91078C15.78 9.91078 15.9987 9.82336 16.1753 9.6485C16.3519 9.47364 16.4399 9.2575 16.4393 9.00007C16.4387 8.74264 16.3504 8.5265 16.1744 8.35164C15.9984 8.17678 15.78 8.08936 15.5194 8.08936H12.7597C12.499 8.08936 12.2807 8.17678 12.1047 8.35164C11.9287 8.5265 11.8404 8.74264 11.8397 9.00007C11.8391 9.2575 11.9274 9.47395 12.1047 9.64941C12.2819 9.82487 12.5002 9.912 12.7597 9.91078H15.5194ZM15.5194 7.17864C15.78 7.17864 15.9987 7.09121 16.1753 6.91636C16.3519 6.7415 16.4399 6.52536 16.4393 6.26793C16.4387 6.0105 16.3504 5.79436 16.1744 5.6195C15.9984 5.44464 15.78 5.35721 15.5194 5.35721H12.7597C12.499 5.35721 12.2807 5.44464 12.1047 5.6195C11.9287 5.79436 11.8404 6.0105 11.8397 6.26793C11.8391 6.52536 11.9274 6.7418 12.1047 6.91727C12.2819 7.09273 12.5002 7.17986 12.7597 7.17864H15.5194ZM7.24018 9.91078C6.68823 9.91078 6.18994 9.96027 5.74532 10.0592C5.30069 10.1582 4.90973 10.3136 4.57243 10.5255C4.25046 10.7228 4.00515 10.9469 3.8365 11.1976C3.66784 11.4484 3.58352 11.7176 3.58352 12.0054C3.58352 12.1876 3.65251 12.3394 3.7905 12.4608C3.92849 12.5822 4.09714 12.6429 4.29645 12.6429H10.1839C10.3832 12.6429 10.5519 12.5783 10.6899 12.4489C10.8278 12.3196 10.8968 12.1566 10.8968 11.9599C10.8968 11.7019 10.8125 11.4514 10.6439 11.2086C10.4752 10.9657 10.2299 10.738 9.90792 10.5255C9.57062 10.313 9.17966 10.1573 8.73503 10.0583C8.29041 9.95936 7.79212 9.91018 7.24018 9.91078ZM7.24018 9.00007C7.74613 9.00007 8.1791 8.82187 8.53909 8.46548C8.89909 8.10909 9.07939 7.68014 9.08 7.17864C9.08062 6.67714 8.90062 6.2485 8.54001 5.89271C8.17941 5.53693 7.74613 5.35843 7.24018 5.35721C6.73422 5.356 6.30125 5.5345 5.94126 5.89271C5.58126 6.25093 5.40096 6.67957 5.40035 7.17864C5.39973 7.67771 5.58004 8.10666 5.94126 8.46548C6.30248 8.8243 6.73545 9.0025 7.24018 9.00007ZM2.64061 16.2858C2.13466 16.2858 1.70168 16.1076 1.34169 15.7512C0.981698 15.3948 0.801395 14.9659 0.800781 14.4644V3.53578C0.800781 3.03489 0.981084 2.60625 1.34169 2.24986C1.7023 1.89346 2.13527 1.71496 2.64061 1.71436H17.3592C17.8652 1.71436 18.2985 1.89286 18.6591 2.24986C19.0197 2.60686 19.1997 3.0355 19.199 3.53578V14.4644C19.199 14.9652 19.0191 15.3942 18.6591 15.7512C18.2991 16.1082 17.8658 16.2864 17.3592 16.2858H2.64061Z" fill="#6A98D2"/>
</svg>
