<svg width="213" height="355" viewBox="0 0 213 355" fill="none" xmlns="http://www.w3.org/2000/svg">
<path opacity="0.04" d="M73.0742 354.226C73.0742 350.242 72.3081 348.25 70.7758 348.25L60.203 353.307C60.203 351.162 58.9772 349.629 56.5255 348.71L52.8481 348.25C50.3964 348.25 47.3318 349.323 43.6544 351.468C43.0414 349.936 42.2753 348.403 41.3559 346.871C40.4366 345.339 39.6704 343.96 39.0575 342.734C35.0736 335.073 31.0896 326.645 27.1057 317.451C23.4282 307.951 19.9039 298.911 16.5329 290.33C13.4684 281.749 11.0167 275.007 9.17796 270.104C7.95213 266.12 6.57308 260.144 5.0408 252.176C3.50851 244.208 1.97623 234.095 0.443944 221.837C3.81497 223.982 6.41985 225.055 8.25859 225.055C10.4038 225.055 12.3958 221.837 14.2345 215.401C15.1539 216.627 16.8394 217.24 19.291 217.24C21.1298 217.24 22.5088 216.627 23.4282 215.401L30.7832 204.369L39.0575 207.127H39.5172C40.1301 207.127 40.743 206.82 41.3559 206.208C41.9688 205.595 42.8882 204.982 44.114 204.369C46.5657 202.837 48.4044 202.07 49.6303 202.07L51.0093 202.53C58.6707 206.208 63.574 212.95 65.7192 222.756C71.2355 246.047 76.7517 257.692 82.2679 257.692C87.7841 257.692 94.2197 251.87 101.575 240.224C105.252 234.402 108.93 227.659 112.607 219.998C116.591 212.337 120.575 203.756 124.559 194.256C125.172 197.933 125.785 199.772 126.398 199.772C127.93 199.772 130.535 195.941 134.212 188.28C138.196 180.618 144.479 170.046 153.059 156.562C157.963 148.287 164.092 138.94 171.447 128.521C179.108 118.101 187.229 107.375 195.81 96.3428C204.391 85.3103 212.665 74.8908 220.633 65.0842C228.907 55.2776 236.262 46.85 242.698 39.8015C249.134 32.753 253.884 28.1561 256.948 26.0109C268.594 18.0431 277.787 10.3816 284.529 3.02668C284.223 5.17187 283.763 7.16384 283.15 9.00259C282.844 10.5349 282.691 11.6075 282.691 12.2204C282.691 13.4462 283.304 14.0591 284.529 14.0591L297.401 7.62353V9.46227C297.401 11.9139 298.013 13.1398 299.239 13.1398C300.159 13.1398 301.997 11.7607 304.756 9.00259C307.514 6.24448 309.046 4.25251 309.352 3.02668L308.433 9.46227L324.062 0.268576L320.385 8.54291C325.288 5.17188 328.812 3.48636 330.958 3.48636C332.183 3.48636 333.103 4.2525 333.716 5.78478C334.329 7.01061 334.635 8.23644 334.635 9.46227C334.635 11.301 333.869 13.4462 332.337 15.8979C330.804 18.3495 328.812 21.2609 326.361 24.6319C324.522 27.0835 321.457 30.761 317.167 35.6643C313.183 40.2612 307.054 47.1565 298.78 56.3502C290.505 65.2374 279.473 77.6489 265.682 93.5847C262.005 97.5686 256.335 104.617 248.674 114.73C241.013 124.537 232.279 136.029 222.472 149.207C212.972 162.078 203.472 175.102 193.971 188.28C184.471 201.457 176.044 213.409 168.689 224.135C161.334 234.555 156.124 242.369 153.059 247.579L124.559 295.846C118.43 306.266 113.373 314.846 109.389 321.589C105.405 328.024 102.341 332.468 100.196 334.919C95.5988 340.436 90.5422 345.339 85.026 349.629L80.8888 347.331L77.2114 349.629L73.0742 354.226Z" fill="#005FA5"/>
</svg>
