<svg width="320" height="80" viewBox="0 0 320 80" fill="none" xmlns="http://www.w3.org/2000/svg">
<g clip-path="url(#clip0_27_2949)">
<path d="M13.2109 29.3578C13.2109 13.144 26.3549 0 42.5687 0H277.431C293.645 0 306.789 13.1439 306.789 29.3578V80.7339H13.2109V29.3578Z" fill="white"/>
<path d="M13.211 59.8167C13.211 49.4803 21.5903 41.1011 31.9266 41.1011H286.393C297.657 41.1011 306.789 50.2326 306.789 61.497V80.7341L-nan -nanL306.789 80.7341H13.211L-nan -nanL13.211 80.7341V59.8167Z" fill="white"/>
<path d="M13.211 59.8167C13.945 77.7983 2.93578 78.1653 0 80.7341H13.211V59.8167Z" fill="white"/>
<path d="M306.824 59.8167C306.8 60.3971 306.789 60.957 306.789 61.497C306.789 62.042 306.801 62.5668 306.824 63.0723C307.484 77.5788 317.29 78.3319 320.035 80.7341C312.739 80.7341 306.824 72.6175 306.824 65.3213V63.0723V59.8167Z" fill="white"/>
<path d="M306.824 63.0723C306.801 62.5668 306.789 62.042 306.789 61.497V80.7341H320.035C312.739 80.7341 306.824 72.6175 306.824 65.3213V63.0723Z" fill="white"/>
</g>
<defs>
<clipPath id="clip0_27_2949">
<rect width="320" height="80" fill="white"/>
</clipPath>
</defs>
</svg>
