<svg width="436" height="110" viewBox="0 0 436 110" fill="none" xmlns="http://www.w3.org/2000/svg">
<g clip-path="url(#clip0_27_78)">
<path d="M18 40C18 17.9086 35.9086 0 58 0H378C400.091 0 418 17.9086 418 40V110H18V40Z" fill="white"/>
<path d="M18 81.5C18 67.4167 29.4167 56 43.5 56H390.211C405.558 56 418 68.4417 418 83.7894V110L-nan -nanL418 110H18L-nan -nanL18 110V81.5Z" fill="white"/>
<path d="M18 81.5C19 106 4 106.5 0 110H18V81.5Z" fill="white"/>
<path d="M418.048 81.5C418.015 82.2909 418 83.0537 418 83.7894C418 84.532 418.016 85.2471 418.048 85.9358C418.947 105.701 432.307 106.727 436.048 110C426.107 110 418.048 98.9411 418.048 89V85.9358V81.5Z" fill="white"/>
<path d="M418.048 85.9358C418.016 85.2471 418 84.532 418 83.7894V110H436.048C426.107 110 418.048 98.9411 418.048 89V85.9358Z" fill="white"/>
</g>
<defs>
<clipPath id="clip0_27_78">
<rect width="436" height="110" fill="white"/>
</clipPath>
</defs>
</svg>
